<svg xmlns="http://www.w3.org/2000/svg" version="1.1" xmlns:xlink="http://www.w3.org/1999/xlink" xmlns:svgjs="http://svgjs.dev/svgjs" width="100%" height="100%" viewBox="0 0 1000 600"><rect width="1000" height="600" x="0" y="0" fill="#ffffff"/><g><rect width="333.3333333333333" height="333.3333333333333" rx="13.333333333333334" ry="13.333333333333334" y="200.24711151273297" fill="#6c63ff" transform="matrix(0.7021491202908068,0,0,0.7021491202908067,0,42.37183607355975)" x="178.02487182617185"/><path d="M405.72926395375885 392.8302039206412L405.72926395375885 392.8302039206412Q408.64031508687816 392.8302039206412 408.64031508687816 399.4339773244766L408.64031508687816 399.4339773244766Q408.64031508687816 413.20756185247626 395.837080936585 426.11861271140344Q383.0068926091333 439.00270939317215 364.5702354327111 439.2183428104403L364.5702354327111 439.2183428104403Q351.57832204230834 439.2183428104403 334.48937372381175 428.9218471358887L334.48937372381175 428.9218471358887Q322.2791314710059 441.9137605262915 304.03115353469326 441.9137605262915L304.03115353469326 441.9137605262915Q292.0095905219969 441.9137605262915 286.37616749586795 435.90297901994336Q280.74274446973897 429.8921975135952 280.74274446973897 420.0000144964213Q280.74274446973897 410.10783147924735 288.02037230253717 405.1482628820812Q295.29800013533537 400.18869428491496 306.5648461875934 400.18869428491496L306.5648461875934 400.18869428491496Q312.57562769394156 400.18869428491496 317.8047380626929 400.78168618240227L317.8047380626929 400.78168618240227Q317.8047380626929 377.1159186372288 323.0608026086027 354.58222653271275L323.0608026086027 354.58222653271275Q316.64570844487685 351.2938169193743 312.0904525050883 347.223736168439Q307.5351965652998 343.1536554175037 307.5351965652998 340.8086420047132L307.5351965652998 340.8086420047132Q307.5351965652998 334.6091812582554 310.230614281151 334.6091812582554L310.230614281151 334.6091812582554Q314.1120157919767 334.6091812582554 318.2899132515461 336.8463779624119Q322.4678107111154 339.05662048940985 327.31956259964755 340.24260428438436L327.31956259964755 340.24260428438436Q339.3411256123439 305.49866992706245 360.31147544166623 295.3908534926205L360.31147544166623 295.3908534926205Q367.69691998309844 291.9137646391724 375.8370814849691 291.9137646391724L375.8370814849691 291.9137646391724Q406.5109350913557 291.9137646391724 406.5109350913557 317.70891217986843L406.5109350913557 317.70891217986843Q406.5109350913557 332.47980126273296 395.43276827920727 343.1536554175037L395.43276827920727 343.1536554175037Q380.09584147601396 357.8975903232098 348.8559501492986 358.67926146080663L348.8559501492986 358.67926146080663Q346.7265701537762 374.9595844645478 346.7265701537762 397.2776431517957L346.7265701537762 397.2776431517957Q346.7265701537762 402.72238693781514 345.3788612958506 409.51483958176016L345.3788612958506 409.51483958176016Q352.1713139397956 413.0188826123666 358.55945392636295 415.929933745486Q364.9745480900888 418.84098487860524 374.2737392097754 418.84098487860524L374.2737392097754 418.84098487860524Q379.1254910983076 418.84098487860524 383.8963804553642 414.7439499505115Q388.64031563526225 410.6738691995761 392.8182130948316 405.82211731104394Q396.99611055440096 400.9703654225118 400.28452016773946 396.9002846715765Q403.5998839582364 392.8302039206412 405.72926395375885 392.8302039206412ZM375.45972300474995 310.91645953592337L375.45972300474995 310.91645953592337Q359.1524458238502 310.91645953592337 351.76700128241794 341.9676716225292L351.76700128241794 341.9676716225292Q365.7562192276856 340.8086420047132 375.3519062961159 334.1240060694022Q384.94759336454615 327.4124159569327 384.94759336454615 320.6199633129877L384.94759336454615 320.6199633129877Q384.94759336454615 310.91645953592337 375.45972300474995 310.91645953592337ZM299.5567601263803 421.34772335434684L299.5567601263803 421.34772335434684Q299.7723935436484 426.7924671403663 307.13088390792217 426.7924671403663Q314.5163284493544 426.7924671403663 316.45702920476725 418.24799298111793L316.45702920476725 418.24799298111793Q311.01228541874787 415.5256210881083 307.5351965652998 415.5256210881083L307.5351965652998 415.5256210881083Q299.7723935436484 415.5256210881083 299.5567601263803 421.34772335434684Z " fill="#ffffff" transform="matrix(0.7021491202908068,0,0,0.7021491202908067,0,42.37183607355975)"/><path d="M719.6780478282705 392.8302039206412L719.6780478282705 392.8302039206412Q722.5890989613897 392.8302039206412 722.5890989613897 399.4339773244766L722.5890989613897 399.4339773244766Q722.5890989613897 413.20756185247626 709.7858648110965 426.11861271140344Q696.9556764836449 439.00270939317215 678.5190193072227 439.2183428104403L678.5190193072227 439.2183428104403Q665.5271059168199 439.2183428104403 648.4381575983233 428.9218471358887L648.4381575983233 428.9218471358887Q636.2279153455174 441.9137605262915 617.9799374092048 441.9137605262915L617.9799374092048 441.9137605262915Q605.9583743965085 441.9137605262915 600.3249513703795 435.90297901994336Q594.6915283442505 429.8921975135952 594.6915283442505 420.0000144964213Q594.6915283442505 410.10783147924735 601.9691561770488 405.1482628820812Q609.2467840098469 400.18869428491496 620.513630062105 400.18869428491496L620.513630062105 400.18869428491496Q626.5244115684532 400.18869428491496 631.7535219372045 400.78168618240227L631.7535219372045 400.78168618240227Q631.7535219372045 377.1159186372288 637.0095864831143 354.58222653271275L637.0095864831143 354.58222653271275Q630.5944923193885 351.2938169193743 626.0392363795999 347.223736168439Q621.4839804398114 343.1536554175037 621.4839804398114 340.8086420047132L621.4839804398114 340.8086420047132Q621.4839804398114 334.6091812582554 624.1793981556626 334.6091812582554L624.1793981556626 334.6091812582554Q628.0607996664884 334.6091812582554 632.2386971260577 336.8463779624119Q636.416594585627 339.05662048940985 641.2683464741591 340.24260428438436L641.2683464741591 340.24260428438436Q653.2899094868554 305.49866992706245 674.2602593161778 295.3908534926205L674.2602593161778 295.3908534926205Q681.6457038576101 291.9137646391724 689.7858653594807 291.9137646391724L689.7858653594807 291.9137646391724Q720.4597189658673 291.9137646391724 720.4597189658673 317.70891217986843L720.4597189658673 317.70891217986843Q720.4597189658673 332.47980126273296 709.3815521537189 343.1536554175037L709.3815521537189 343.1536554175037Q694.0446253505255 357.8975903232098 662.8047340238102 358.67926146080663L662.8047340238102 358.67926146080663Q660.6753540282878 374.9595844645478 660.6753540282878 397.2776431517957L660.6753540282878 397.2776431517957Q660.6753540282878 402.72238693781514 659.3276451703622 409.51483958176016L659.3276451703622 409.51483958176016Q666.1200978143071 413.0188826123666 672.5082378008746 415.929933745486Q678.9233319646004 418.84098487860524 688.222523084287 418.84098487860524L688.222523084287 418.84098487860524Q693.0742749728191 418.84098487860524 697.8451643298757 414.7439499505115Q702.5890995097739 410.6738691995761 706.7669969693432 405.82211731104394Q710.9448944289126 400.9703654225118 714.233304042251 396.9002846715765Q717.5486678327479 392.8302039206412 719.6780478282705 392.8302039206412ZM689.4085068792615 310.91645953592337L689.4085068792615 310.91645953592337Q673.1012296983617 310.91645953592337 665.7157851569294 341.9676716225292L665.7157851569294 341.9676716225292Q679.7050031021971 340.8086420047132 689.3006901706275 334.1240060694022Q698.8963772390576 327.4124159569327 698.8963772390576 320.6199633129877L698.8963772390576 320.6199633129877Q698.8963772390576 310.91645953592337 689.4085068792615 310.91645953592337ZM613.5055440008919 421.34772335434684L613.5055440008919 421.34772335434684Q613.72117741816 426.7924671403663 621.0796677824337 426.7924671403663Q628.465112323866 426.7924671403663 630.4058130792788 418.24799298111793L630.4058130792788 418.24799298111793Q624.9610692932594 415.5256210881083 621.4839804398114 415.5256210881083L621.4839804398114 415.5256210881083Q613.72117741816 415.5256210881083 613.5055440008919 421.34772335434684ZM758.6807421766372 417.4663218435211L758.6807421766372 417.4663218435211Q773.8289897397209 417.4663218435211 787.9799327479396 405.44475883082475L787.9799327479396 405.44475883082475Q793.2359972938494 400.9703654225118 796.5244069071879 397.19678062032017Q799.8128165205263 393.39624164096995 801.5648380358297 393.39624164096995L801.5648380358297 393.39624164096995Q804.2872099288394 393.39624164096995 804.2872099288394 398.8409854269894Q804.2872099288394 404.28572921300884 801.3761587957201 410.97036514831973Q798.4651076626009 417.65500108363074 791.6726550186557 424.07009524735656L791.6726550186557 424.07009524735656Q774.9880193575369 439.784380530769 745.877508026344 439.784380530769L745.877508026344 439.784380530769Q722.7777782014992 439.784380530769 714.4219832823605 423.0997448696502L714.4219832823605 423.0997448696502Q711.5109321492413 417.27764260341155 711.5109321492413 406.41510920853125Q711.5109321492413 395.55257581365095 715.7966463174447 383.8005545725397Q720.0554063084895 372.04853333142853 727.1443549011782 363.53101334933876Q734.2333034938669 354.9865391900904 743.5324946135535 350.2156498330338Q752.8586399103987 345.4717146531357 763.4246773565353 345.4717146531357Q774.0176689798304 345.4717146531357 779.731954537435 350.700825021887Q785.473194272198 355.9568895677969 785.473194272198 364.285730309777Q785.473194272198 372.6415252289157 781.2952968126286 377.97845230630116Q777.1173993530593 383.3153793836865 770.5136259492239 386.9002849457686Q763.9098525453885 390.4851905078507 755.8775077521519 393.3153791094944Q747.8182087817569 396.11861353397967 740.0554057601054 399.62265656458624L740.0554057601054 399.62265656458624L740.0554057601054 404.4744084531184Q740.244085000215 411.4555403371729 745.877508026344 414.3665914702923Q751.510931052473 417.27764260341155 758.6807421766372 417.4663218435211ZM755.3923325632987 362.7493422117419L755.3923325632987 362.7493422117419Q745.2845161288568 362.7493422117419 741.403114618031 386.22643051680575L741.403114618031 386.22643051680575Q745.4731953689663 383.50405862379614 749.0850551082069 381.3746786282736Q752.669960670289 379.2452986327512 755.3923325632987 377.3045978773383L755.3923325632987 377.3045978773383Q761.2144348295373 373.0188837091349 761.4031140696469 367.60109410027405L761.4031140696469 367.60109410027405Q761.4031140696469 362.7493422117419 755.3923325632987 362.7493422117419ZM825.2575597581616 353.2345176747872L825.2575597581616 353.2345176747872Q825.2575597581616 366.2264310651899 820.5944871097391 382.7223874861993L820.5944871097391 382.7223874861993Q820.9718455899583 388.94880240981547 820.9718455899583 394.7709046760541Q820.9718455899583 400.5930069422926 821.7535167275552 404.85176693333756L821.7535167275552 404.85176693333756Q824.6645678606744 412.61456995498895 829.1389612689874 414.3665914702923L829.1389612689874 414.3665914702923Q833.0203627798131 414.3665914702923 837.6564812510771 407.6819555349813Q842.3195538994997 400.9703654225118 847.1713057880319 391.6711743028252L847.1713057880319 391.6711743028252Q844.8532465523998 382.7223874861993 844.8532465523998 374.77090522443825L844.8532465523998 374.77090522443825Q844.8532465523998 360.80864145632904 849.1120065434447 354.3935472926032L849.1120065434447 354.3935472926032Q854.3680710893547 346.2533857907325 865.0419252441253 346.2533857907325Q875.7157793988961 346.2533857907325 879.192868252344 354.3935472926032L879.192868252344 354.3935472926032Q880.5675312874281 357.493277665832 880.5675312874281 361.37467917665776L880.5675312874281 361.37467917665776Q880.5675312874281 368.3827652378709 877.0634882568216 375.6603930706691Q873.5594452262151 382.9380209034673 865.7966422045637 394.7709046760541L865.7966422045637 394.7709046760541Q869.3006852351701 405.0404461734471 876.2818171192248 405.0404461734471L876.2818171192248 405.0404461734471Q884.8262912784731 404.85176693333756 891.0257520249307 399.0296646670989L891.0257520249307 399.0296646670989Q893.3707654377214 396.711605431467 895.0149702443906 394.95958391616364Q896.6591750510598 393.2075624008604 898.4111965663632 393.2075624008604L898.4111965663632 393.2075624008604Q901.1335684593728 393.2075624008604 901.1335684593728 399.62265656458624L901.1335684593728 399.62265656458624Q901.1335684593728 411.64421957728257 894.2332991067938 417.16982589477755Q887.3599839313732 422.722386389431 876.874809016712 422.722386389431L876.874809016712 422.722386389431Q863.1012244887124 422.722386389431 854.9341088096834 410.6738691995761L854.9341088096834 410.6738691995761Q832.2386916422163 440.18869318814666 816.901764839023 440.18869318814666L816.901764839023 440.18869318814666Q810.8909833326749 440.18869318814666 805.0688810664362 423.0997448696502Q799.2467788001976 406.0107965511536 796.1470484269688 376.90028521996067L796.1470484269688 376.90028521996067Q793.8020350141783 358.4636280435385 798.84246614282 350.51214578177746L798.84246614282 350.51214578177746Q803.1281803110234 344.31268503531976 815.5540559810973 344.31268503531976L815.5540559810973 344.31268503531976Q820.1901744523615 344.31268503531976 822.7238671052615 347.1159194598049Q825.2575597581616 349.94610806144874 825.2575597581616 353.2345176747872ZM970.8101164141261 422.1293944919437L970.8101164141261 422.1293944919437Q955.4731896109328 440.18869318814666 934.0176645927573 440.18869318814666Q912.5890937517404 440.18869318814666 901.9152395969696 429.21834308463235Q891.2413854421989 418.24799298111793 891.4300646823085 401.9407158002183L891.4300646823085 401.9407158002183Q891.2413854421989 378.84098597537354 905.9853203479049 362.1563503142546Q920.729255253611 345.4717146531357 944.6106562160526 345.4717146531357L944.6106562160526 345.4717146531357Q955.4731896109328 345.4717146531357 962.0769630147684 348.1940865461454L962.0769630147684 348.1940865461454Q973.5055341299774 352.857159194568 973.5055341299774 356.9272399455033L973.5055341299774 356.9272399455033Q973.5055341299774 360.0269703187322 957.4947528978213 360.1347870273662Q941.4839716656651 360.21564955884173 930.7292549794189 371.18599966235615Q919.9475841160141 382.15634976587046 919.9475841160141 398.8409854269894L919.9475841160141 398.8409854269894Q919.9475841160141 407.5741388263473 925.0958319532899 413.5040578012199Q930.2440797905657 419.40702259893396 939.6510876188863 419.40702259893396Q949.058095447207 419.40702259893396 955.2845103708233 415.5256210881083L955.2845103708233 415.5256210881083Q941.4839716656651 406.2264299684217 941.4839716656651 388.5444897524378L941.4839716656651 388.5444897524378Q941.2952924255557 379.2452986327512 948.1955617781347 371.56335814257534Q955.0688769535551 363.90837182955795 965.8505478169599 363.80055512092383Q976.6322186803648 363.7196925894483 981.2683371516288 369.73047409579647Q985.9314098000514 375.74125560214463 985.9314098000514 385.14826343046525Q985.9314098000514 394.58222543594445 981.4839705688969 405.0404461734471L981.4839705688969 405.0404461734471L982.6430001867129 405.0404461734471Q991.1874743459612 404.85176693333756 997.3869350924189 399.0296646670989L997.3869350924189 399.0296646670989Q999.7049943280509 396.711605431467 1001.3761533118787 394.95958391616364Q1003.020358118548 393.2075624008604 1004.7723796338513 393.2075624008604L1004.7723796338513 393.2075624008604Q1007.4677973497024 393.2075624008604 1007.4677973497024 399.62265656458624L1007.4677973497024 399.62265656458624Q1007.4677973497024 411.4555403371729 1000.4866654656479 417.38545931204555Q993.5055335815932 423.2884241097597 985.068876130979 423.2884241097597Q976.6322186803648 423.2884241097597 970.8101164141261 422.1293944919437ZM969.058094898823 399.62265656458624L969.058094898823 399.62265656458624Q972.3465045121615 392.6415246805317 972.3465045121615 386.0377512766962Q972.3465045121615 379.43397787286074 968.0877445211164 379.43397787286074L968.0877445211164 379.43397787286074Q966.3357230058132 379.43397787286074 965.1766933879971 381.9676705257609Q964.0176637701812 384.4744090015025 964.0176637701812 386.81942241429306L964.0176637701812 386.81942241429306Q964.0176637701812 394.58222543594445 969.058094898823 399.62265656458624ZM1058.1416504077047 360.21564955884173L1058.1416504077047 356.73856070539375Q1058.1416504077047 343.71969313783245 1078.3033749222718 343.71969313783245L1078.3033749222718 343.71969313783245Q1083.370760228072 343.71969313783245 1084.6106523773637 347.0350569283295Q1085.8774987038137 350.3234665416679 1085.8774987038137 357.11591918561294L1085.8774987038137 357.11591918561294Q1085.8774987038137 366.63074372256756 1081.6187387127688 386.60378899702494Q1077.3330245445654 406.6037884486408 1077.5486579618337 413.58492033269545L1077.5486579618337 413.58492033269545Q1077.5486579618337 416.90028412319236 1079.678037957356 416.90028412319236L1079.678037957356 416.90028412319236Q1082.5890890904752 416.90028412319236 1086.84784908152 413.20756185247626Q1091.1335632497235 409.51483958176016 1095.3923232407683 405.1482628820812Q1099.6510832318131 400.78168618240227 1103.2629429710537 397.08896391168616Q1106.8478485331361 393.39624164096995 1108.1955573910614 393.39624164096995L1108.1955573910614 393.39624164096995Q1110.9179292840713 393.39624164096995 1110.9179292840713 400.0000150448054L1110.9179292840713 400.0000150448054Q1110.9179292840713 413.58492033269545 1097.5217032362907 426.199475242879L1097.5217032362907 426.199475242879Q1075.0149653089334 439.4070220505498 1069.0041838025854 439.4070220505498L1069.0041838025854 439.4070220505498Q1068.411191905098 439.4070220505498 1068.033833424879 439.2183428104403L1068.033833424879 439.2183428104403Q1060.6483888834464 439.2183428104403 1057.6564752188515 434.36659092190814Q1054.6376073770984 429.514839033376 1053.8559362395013 422.1293944919437L1053.8559362395013 422.1293944919437Q1049.9745347286757 429.2992056161079 1043.1820820847306 434.4474534533837Q1036.389629440786 439.59570129065946 1027.656476041428 439.59570129065946L1027.656476041428 439.59570129065946Q1012.3195492382346 439.59570129065946 1004.0715710277299 433.77359902442083Q995.8235928172252 427.9514967581823 995.8235928172252 416.4959714658147L995.8235928172252 416.4959714658147Q995.8235928172252 411.4555403371729 997.279118383785 407.1967803461281Q998.7346439503445 402.9110661779247 1002.0500077408416 396.711605431467L1002.0500077408416 396.711605431467L1007.6834307669704 348.97575768374224Q1013.6942122733186 344.31268503531976 1024.934104148418 344.31268503531976L1024.934104148418 344.31268503531976Q1033.8828909650442 344.31268503531976 1035.0419205828603 355.9568895677969L1035.0419205828603 355.9568895677969Q1036.0122709605666 365.47171410475164 1034.1524327366292 372.9380211776594Q1032.3195486898503 380.40432825056723 1029.2198183166215 391.7520368343007Q1026.1200879433927 403.0997454180342 1026.1200879433927 411.8328988173921L1026.1200879433927 411.8328988173921Q1026.1200879433927 418.84098487860524 1034.8532413427506 418.84098487860524L1034.8532413427506 418.84098487860524Q1044.3411117025466 418.84098487860524 1051.34919776376 402.12939504032784L1051.34919776376 402.12939504032784Q1056.7669873726209 389.32616089003466 1058.7076881280336 373.6118756066222L1058.7076881280336 373.6118756066222Q1058.519008887924 372.04853333142853 1058.41119217929 369.62265738716246Q1058.3303296478143 367.1967814428964 1058.2225129391804 364.87872220726433Q1058.1416504077047 362.56066297163227 1058.1416504077047 360.21564955884173L1058.1416504077047 360.21564955884173ZM1144.5028340235772 439.2183428104403L1144.5028340235772 439.2183428104403Q1116.74003155031 439.4070220505498 1106.6591692930265 418.4366722212276L1106.6591692930265 418.4366722212276Q1103.1551262624198 411.07818185695385 1103.1551262624198 399.9191525133299Q1103.1551262624198 388.76012316970593 1105.0958270178326 376.1455682595223L1105.0958270178326 376.1455682595223Q1108.9772285286585 350.9164584391551 1120.0284411636485 329.5687501296137L1120.0284411636485 329.5687501296137Q1125.6618641897771 318.6792625575748 1132.642996073832 310.91645953592337L1132.642996073832 310.91645953592337Q1147.9799228770253 293.8544653945853 1166.8208927108249 294.0431446346949L1166.8208927108249 294.0431446346949Q1175.1497334528053 294.0431446346949 1179.920622809862 298.59840057448343Q1184.66455798976 303.1536565142719 1184.66455798976 311.69813067352027Q1184.66455798976 320.2426048327685 1179.6241268611184 328.8679415234924Q1174.5836957324768 337.52023239137475 1166.713076002191 346.7385609795858Q1158.8424562719056 355.9568895677969 1149.3545859121095 366.03775182508036Q1139.8397613751545 376.1455682595223 1130.7022953184191 387.9784520321091L1130.7022953184191 387.9784520321091L1130.7022953184191 395.7412550537605Q1130.7022953184191 406.6037884486408 1135.3653679668414 411.64421957728257Q1140.0284406152641 416.68465070592424 1146.2279013617222 416.68465070592424L1146.2279013617222 416.68465070592424Q1162.9394911999993 416.68465070592424 1175.7427253502924 400.18869428491496L1175.7427253502924 400.18869428491496Q1180.9718357190436 393.39624164096995 1183.6942076120536 393.39624164096995L1183.6942076120536 393.39624164096995Q1186.416579505063 393.39624164096995 1186.416579505063 400.0000150448054Q1186.416579505063 406.6037884486408 1182.831673942981 413.5040578012199Q1179.2198142037405 420.37737297664046 1173.3977119375022 426.11861271140344Q1167.5756096712635 431.83289826900796 1160.0284400668802 435.5256205397242Q1152.4543162853383 439.2183428104403 1144.5028340235772 439.2183428104403ZM1154.96105476108 334.98653973847456Q1159.0580896891738 329.9461086098329 1161.3761489248059 325.8760278588976Q1163.6942081604375 321.8059471079622 1163.6942081604375 317.43937040828325Q1163.6942081604375 313.0727937086043 1160.5944777872087 313.0727937086043L1160.5944777872087 313.0727937086043Q1153.8020251432636 313.0727937086043 1145.5540469327593 327.0350574767135Q1137.3060687222546 340.99732124482273 1133.2359879713194 363.7196925894483L1133.2359879713194 363.7196925894483Q1139.8397613751545 353.61187615500637 1145.3653676926497 346.81942351106136Q1150.8909740101444 340.02697086711635 1154.96105476108 334.98653973847456ZM1183.5863909034197 428.0593134668163Q1181.3761483764215 422.91106562954053 1180.4057979987151 416.0107962769615Q1179.4354476210087 409.13748110154097 1179.4354476210087 396.711605431467Q1179.4354476210087 384.285729761393 1184.0715660922729 363.126700691961L1184.0715660922729 363.126700691961L1175.338412692915 363.126700691961Q1173.020353457283 363.126700691961 1173.020353457283 361.1859999365482L1173.020353457283 361.1859999365482Q1173.020353457283 356.52292728812563 1173.882887126355 353.53101362353084Q1174.772374972586 350.51214578177746 1178.0607845859245 346.6307442709517L1178.0607845859245 346.6307442709517L1182.7238572343472 346.6307442709517Q1185.4462291273567 346.6307442709517 1188.5459595005855 346.4420650308422L1188.5459595005855 346.4420650308422Q1197.872104797431 316.5498825620524 1207.5756085744952 316.5498825620524L1207.5756085744952 316.5498825620524Q1215.3384115961462 316.73856180216194 1218.4381419693755 326.4420655792263L1218.4381419693755 326.4420655792263Q1219.2198131069722 329.16443747223605 1220.1901634846786 332.26416784546484L1220.1901634846786 332.26416784546484L1212.2117270457588 346.2533857907325Q1225.796632333649 346.6307442709517 1229.4084920728897 346.6307442709517Q1232.9933976349716 346.6307442709517 1233.2898935837152 347.30459869991455Q1233.5594353553006 348.00540730603586 1233.5594353553006 349.35311616396143L1233.5594353553006 349.35311616396143Q1233.5594353553006 352.857159194568 1231.9152305486314 358.0862695633193Q1230.2710257419621 363.31537993207064 1228.1416457464397 363.126700691961L1228.1416457464397 363.126700691961L1208.7346381923112 362.1563503142546Q1204.6645574413756 385.8490720365867 1204.6645574413756 401.37467807988946Q1204.6645574413756 416.90028412319236 1209.11199667253 416.90028412319236L1209.11199667253 416.90028412319236Q1212.8047189432464 416.90028412319236 1222.5082227203106 410.7816859082102Q1232.211726497375 404.6630876932279 1236.4704864884197 399.0296646670989Q1240.7562006566232 393.39624164096995 1243.478572549633 393.39624164096995L1243.478572549633 393.39624164096995Q1246.173990265484 393.39624164096995 1246.173990265484 400.0000150448054Q1246.173990265484 406.6037884486408 1241.5378717942199 413.5040578012199Q1236.8747991457976 420.37737297664046 1229.785850553109 426.11861271140344Q1222.6969019604203 431.83289826900796 1214.0715652696963 435.5256205397242Q1205.4192744018142 439.2183428104403 1199.031134415247 439.2183428104403Q1192.616040251521 439.2183428104403 1189.2198139295483 436.1994749686869Q1185.823587607576 433.18060712693364 1183.5863909034197 428.0593134668163Z " fill="#6c63ff" transform="matrix(0.7021491202908068,0,0,0.7021491202908067,0,42.37183607355975)"/></g></svg>